<?xml version="1.0" encoding="utf-8"?>
<!-- Generator: Adobe Illustrator 21.1.0, SVG Export Plug-In . SVG Version: 6.00 Build 0)  -->
<svg version="1.1" id="Layer_1" xmlns="http://www.w3.org/2000/svg" xmlns:xlink="http://www.w3.org/1999/xlink" x="0px" y="0px"
	 viewBox="0 0 1920 1280" style="enable-background:new 0 0 1920 1280;" xml:space="preserve">
<style type="text/css">
	.st0{display:none;}
	.st1{display:none;fill:none;}
	.st2{fill:#FFFFFF;}
	.st3{fill:none;}
	.st4{font-family:'Magneto-Bold';}
	.st5{font-size:86px;}
</style>
<g>
	<rect x="460" y="306" class="st0" width="606" height="658"/>
	<path class="st1" d="z"/>
	<path class="st2" d="M1016,620.7c0-125.9-110.3-228.3-246-228.3s-246,102.4-246,228.3c0,103.5,74.6,191.1,176.5,219v65
		c0,3.4,2.5,6.6,6.1,7.2c4.9,0.9,9.2-2.6,9.2-7v-63.5c15.3,3.2,31.1,5.1,47.3,5.6v57.7c0,3.4,2.5,6.6,6.1,7.2c4.9,0.9,9.2-2.6,9.2-7
		v-58.1c15.7-0.5,31-2.3,45.9-5.4v63.1c0,3.4,2.5,6.6,6.1,7.2c4.9,0.9,9.2-2.6,9.2-7v-65.2C941.4,811.7,1016,724.2,1016,620.7z
		 M761.4,522.2c17.5,0,45.6,2.4,62.4,8.3c-14.1,6.6-35.7,18.5-48.6,34.2c-21.2-17.3-42.3-29.3-55.4-36
		C734.3,523.6,753.2,522.2,761.4,522.2z M785.8,677.5c-5.3-56.9-64.1-87-78.3-93.5v-45c23.6,11.7,95.4,51.9,116.2,116.3
		c0.3,0.7,0.6,1.4,1,1.9C818.5,665.7,807,674.5,785.8,677.5z M832.6,635.1c-11-24-28.1-44.3-46-60.7c11.3-14.5,33-26.1,46-32V635.1z
		 M707.5,599.9c18.5,9.9,58.9,36.1,63,78.4c-0.3,0-0.5,0-0.7,0c-61.1,0-62.3-40-62.3-41.6V599.9z M839.5,824.7v-46.3
		c83.4-32.9,69.5-95.9,69.3-96.5c-0.9-3.7-4.8-6.1-8.9-5.4c-32.4,5.6-55.2,18.4-67.7,37.9c-15.3,23.8-10.2,50-8,58.5v54.1
		c-14.8,3.3-30.1,5.3-45.9,5.7V691.9c0.3,0,0.7,0.1,1,0.1c0.9,0,1.8-0.2,2.6-0.5c63.6-5.1,64.4-53.3,64.4-53.9V531.3
		c0,0,1.2-0.4,1.2-0.6c0-0.2-0.1-0.5-0.1-0.8c-0.1-0.3-0.2-0.5-0.3-0.8c-0.1-0.2,0.5-0.5,0.5-0.5v0c-0.1-0.3-0.3-0.5-0.5-0.8
		c-0.1-0.1-0.2-0.3-0.3-0.5c-0.1-0.1-0.2-0.1-0.2-0.2c-0.3-0.3-0.5-0.6-0.8-0.9c-19.3-17.9-78-18.4-84.7-18.4
		c-2,0-47.4,0.2-67.1,18.4c-1.4,1.3-2.3,3.2-2.3,5.1v105.7c0,0.5,0.9,51.7,69.5,55.2v140.3c-15.7-0.5-31.1-2.5-45.9-5.7v-54.1
		c2.3-8.5,7.3-34.7-8-58.5c-12.5-19.5-35.3-32.3-67.7-37.9c-4.1-0.7-8,1.7-8.9,5.4c-0.2,0.7-14.1,63.6,69.3,96.5v46.3
		c-93.2-27.4-161-108.5-161-203.9c0-118,103.4-213.9,230.5-213.9s230.5,96,230.5,213.9C1000.5,716.2,932.8,797.3,839.5,824.7z
		 M838,763.4c-0.3-0.4-0.5-0.8-0.9-1.1c-1.4-9.9-1.7-26.2,7.8-40.8c9.2-14.3,25.8-24.2,49.4-29.6C894.9,706.7,889.8,741,838,763.4z
		 M703,762.2c-0.3,0.4-0.6,0.8-0.9,1.1c-51.8-22.4-56.8-56.7-56.3-71.5c23.6,5.4,40.2,15.3,49.4,29.6
		C704.7,736,704.5,752.3,703,762.2z"/>
	<path class="st3" d="z"/>
	<text transform="matrix(1 0 0 1 612.8804 897.4775)" class="st2 st4 st5">E</text>
	<text transform="matrix(1 0 0 1 862.5073 897.2539)" class="st2 st4 st5">K</text>
</g>
</svg>
