<svg id="Layer_1" data-name="Layer 1" xmlns="http://www.w3.org/2000/svg" viewBox="0 0 541.77 513.54"><defs><style>.cls-1{fill:#fff;}.cls-2{fill:none;}</style></defs><title>mylogo2</title><path class="cls-1" d="M1008.43,599c0-129.32-113.36-234.54-252.68-234.54S503.07,469.69,503.07,599c0,106.31,76.6,196.29,181.27,225L684,863c0,4,3.22,5,7,5,7,0,9-2,9-5l.05-37.3a279.42,279.42,0,0,0,48.56,5.72L748,863c0,4,4,5,9,5s7-2,7-5l.32-31.67a267.88,267.88,0,0,0,47.13-5.55L811,863c0,3,4.22,5,8,5,5,0,8-2,8-5l.16-39C931.78,795.25,1008.43,705.31,1008.43,599ZM746.84,497.85c18,0,46.85,2.44,64.08,8.53-14.44,6.78-36.72,19-50,35.1a327.77,327.77,0,0,0-56.89-37C719.05,499.21,738.49,497.85,746.84,497.85ZM772,657.33c-5.41-58.41-65.87-89.42-80.47-96V515c24.27,12,98,53.29,119.39,119.45a8.22,8.22,0,0,0,1.05,2C805.52,645.29,793.75,654.31,772,657.33ZM820,613.84c-11.35-24.67-28.84-45.49-47.27-62.36,11.61-14.92,33.93-26.77,47.27-32.91ZM691.48,577.6c19,10.14,60.46,37.05,64.71,80.5h-.68c-62.77,0-64-41.05-64-42.76Zm135.67,231V761c85.67-33.78,71.37-98.52,71.22-99.16-.89-3.84-4.92-6.27-9.11-5.59-33.3,5.78-56.71,18.86-69.59,38.93-15.71,24.45-10.53,51.33-8.22,60.08v55.58a249,249,0,0,1-47.13,5.9V672.16a8.19,8.19,0,0,0,1.07.09,8.52,8.52,0,0,0,2.71-.47c65.38-5.22,66.2-54.8,66.2-55.37V507.21s1.25-.39,1.25-.59a4,4,0,0,0-.1-.78,3.46,3.46,0,0,0-.26-.78c-.05-.2.54-.54.54-.54h0a6.68,6.68,0,0,0-.48-.83c-.11-.15-.16-.34-.26-.49s-.16-.15-.21-.25a6.54,6.54,0,0,0-.79-.88c-19.82-18.39-80.16-18.93-87-18.93-2,0-48.72.2-68.91,18.93a7.09,7.09,0,0,0-2.33,5.2V615.84c0,.53.89,53.11,71.41,56.74V816.71a253.5,253.5,0,0,1-47.13-5.89V755.23c2.36-8.75,7.54-35.63-8.22-60.08-12.88-20-36.29-33.15-69.59-38.93a7.83,7.83,0,0,0-9.11,5.59c-.16.68-14.51,65.38,71.22,99.16v47.56C588.57,780.4,519,697.11,519,599c0-121.2,106.21-219.79,236.79-219.79S992.54,477.81,992.54,599C992.54,697.11,922.93,780.4,827.16,808.57Zm-1.58-63a5.08,5.08,0,0,0-.89-1.17c-1.47-10.19-1.73-26.91,8-41.93,9.45-14.68,26.53-24.87,50.74-30.37C884,687.31,878.84,722.61,825.57,745.62Zm-138.67-1.22c-.32.39-.63.78-.89,1.17-53.26-23-58.36-58.26-57.83-73.47,24.21,5.51,41.29,15.7,50.74,30.37C688.64,717.49,688.38,734.22,686.91,744.41Z" transform="translate(-498.23 -359.52)"/><path class="cls-1" d="M1013.43,599c-.22-70.28-34-136.51-88.46-180.47-57.35-46.33-132.86-66.33-205.76-56.62C648.64,371.31,582.73,408.67,541,466.76S486.8,600.57,509.16,668.58c23,70,79.21,124.68,147.19,151.35A270.73,270.73,0,0,0,683,828.78L679.34,824c-.11,12.92-1,26.05-.34,39,.28,5.72,4,9.24,9.59,9.91,5.13.62,12.18,0,15.13-5,2.84-4.76,1.29-13.38,1.3-18.57l0-23.6-6.33,4.82a298.57,298.57,0,0,0,49.89,5.9l-5-5-.45,23.39c-.05,2.71-.29,5.48-.16,8.19.36,7.32,6.79,9.87,13.27,10s12.3-2.88,12.73-10c.17-2.72.06-5.49.08-8.21l.24-23.46-5,5a286.92,286.92,0,0,0,48.46-5.73l-6.33-4.82c-.15,12.3-1.24,25-.45,37.22.83,12.79,24.17,13.67,25.89,1,.79-5.83.16-12.13.18-18l.09-22-3.67,4.82c79.9-22.17,148.57-81.62,174.27-161.5A225.58,225.58,0,0,0,1013.43,599c0-6.44-10-6.44-10,0-.26,80.26-46.28,153-114.66,193.47a259.45,259.45,0,0,1-62.94,26.66,5.1,5.1,0,0,0-3.67,4.82l-.08,20L822,857.45a21.28,21.28,0,0,1,0,4.23c-.07.29.13.77,0,1-.43.87.54-.74-.13-.12-1,.91-4.8.59-5.77-.28-.78-.7.31,1.14-.1.38s0-2.68,0-3.44l.16-12.88.25-20.6c0-3.42-3.22-5.47-6.33-4.82a270.79,270.79,0,0,1-45.8,5.38,5.09,5.09,0,0,0-5,5l-.18,17.81L759,860.08c0,3.21.67,3-2.76,2.91-3.78-.05-3.28.5-3.21-2.9l.21-10.91.34-17.76a5.08,5.08,0,0,0-5-5,282.28,282.28,0,0,1-47.23-5.54,5.07,5.07,0,0,0-6.33,4.82l0,21.64,0,13.09a10.39,10.39,0,0,1,0,2.44c-.19.66.71-.65.6-.55-1,.87-3.46.74-4.6.69-2.28-.09-1.63.45-2-.79a14.16,14.16,0,0,1,0-3.39l.12-13.84.19-21a5.09,5.09,0,0,0-3.67-4.82c-68.21-18.88-127.93-65.64-157.9-130.38-28.95-62.53-25.34-136.49,8.62-196.27C570,433.42,629.2,392,694.94,376.46c69.17-16.3,144.13-3.88,203.66,35.13,55.44,36.33,95.6,95.58,103.35,162a225.26,225.26,0,0,1,1.48,25.43C1003.45,605.44,1013.45,605.45,1013.43,599Z" transform="translate(-498.23 -359.52)"/><path class="cls-1" d="M746.84,502.85c20.82.06,42.94,1.54,62.75,8.35l-1.19-9.14c-18.67,8.82-37.53,19.91-51,35.89h7.07a334.74,334.74,0,0,0-57.9-37.79l-1.19,9.14c13.22-4.5,27.49-6.38,41.43-6.45,6.43,0,6.45-10,0-10-14.76.08-30.09,2-44.09,6.81-3.8,1.29-5.26,7.05-1.19,9.14A322.78,322.78,0,0,1,757.43,545c2,1.58,5.19,2.24,7.07,0,12.94-15.39,31-25.84,48.94-34.32,4.19-2,2.52-7.86-1.19-9.14-20.58-7.08-43.79-8.65-65.41-8.71C740.4,492.83,740.39,502.83,746.84,502.85Z" transform="translate(-498.23 -359.52)"/><path class="cls-1" d="M777,657.33c-4.08-40.66-33.07-71.91-67-92A169.55,169.55,0,0,0,694,557l2.48,4.32V515L689,519.33c37.58,18.7,74.15,44.9,98.37,79.64a155.78,155.78,0,0,1,11.28,18.8c1.78,3.53,3.43,7.12,4.86,10.8,1.34,3.44,2.18,7.27,4.13,10.42v-5c-8.69,11.7-23.12,16.52-37,18.57-6.34.94-3.65,10.58,2.66,9.64,16.82-2.49,32.62-9.25,43-23.16a4.89,4.89,0,0,0,0-5c-1.58-2.56-2.26-5.87-3.38-8.68-1.35-3.4-2.81-6.77-4.4-10.07a151.93,151.93,0,0,0-10.2-17.89,200.08,200.08,0,0,0-25.21-30.66c-16.64-16.71-35.76-31-55.92-43.2q-11.3-6.84-23.13-12.76c-3.33-1.66-7.52.33-7.52,4.32v46.27A4.92,4.92,0,0,0,689,565.6c37.12,16.93,73.69,48.89,78,91.73C767.59,663.67,777.6,663.74,777,657.33Z" transform="translate(-498.23 -359.52)"/><path class="cls-1" d="M824.34,611.31C813,587,795.91,566,776.28,547.94V555c11.79-14.75,29.39-24.31,46.26-32.13L815,518.57v95.27c0,6.43,10,6.45,10,0V518.57c0-4.06-4.18-5.87-7.52-4.32-17.56,8.14-36,18.34-48.29,33.69-1.63,2-2.16,5.08,0,7.07,19.07,17.56,35.48,37.75,46.49,61.35C818.42,622.19,827,617.12,824.34,611.31Z" transform="translate(-498.23 -359.52)"/><path class="cls-1" d="M689,581.92c29.2,15.66,58.48,41.29,62.24,76.18l5-5c-20.56,0-45.27-4.39-55.82-24.33a31.55,31.55,0,0,1-2.84-7.25c-.27-1-.48-2-.69-3-.09-.44-.16-.9-.23-1.34-.14-.84.08,1.23,0-.18-.29-4.25-.12-8.54-.12-12.8V577.6c0-6.43-10-6.45-10,0,0,13-1.11,26.54.13,39.52,1.41,14.8,10.62,27.77,23.18,35.4,13.79,8.37,30.55,10.58,46.41,10.58,2.49,0,5.29-2.3,5-5C757,619.43,726.71,590.82,694,573.28,688.34,570.24,683.28,578.87,689,581.92Z" transform="translate(-498.23 -359.52)"/><path class="cls-1" d="M832.16,808.57V761l-3.67,4.82c27.71-11.07,54.59-28.69,67.63-56.55,6.44-13.76,9.6-29.41,7.73-44.58a31.66,31.66,0,0,0-.64-4.13c-2.2-8.38-10.35-10.08-17.79-8.68-17.4,3.27-35,9-49.5,19.46-14.16,10.16-24.83,24.41-29.41,41.37a82.64,82.64,0,0,0-2.6,26.29,99.78,99.78,0,0,0,1.17,10.22q.33,2,.75,4c.13.6.82,3.77.63,2.08,1,9,0,18.71,0,27.77v27.79l3.67-4.82a251.36,251.36,0,0,1-45.8,5.72l5,5V672.16l-5,5c6.33.56,14.16-1.42,20.37-2.78a89.32,89.32,0,0,0,17.11-5.62,64.72,64.72,0,0,0,22.73-16.53,61,61,0,0,0,14.56-33.06c.71-6.53.21-13.27.21-19.82V507.21L835.63,512a13.87,13.87,0,0,0,2.45-1.09c2.13-1.24,2.6-3.41,2.3-5.65a4.21,4.21,0,0,0-.37-1.56l-.5,3.85-1.25,1.26-7.52-4.32h0L840,502c-3.79-6.64-11.9-10.28-18.72-13a128.9,128.9,0,0,0-26.75-7,297,297,0,0,0-45.22-3.87,178.2,178.2,0,0,0-33.61,3,109.78,109.78,0,0,0-27.83,8.52c-7.29,3.47-16.67,8.69-17.13,17.67-.42,8.05,0,16.24,0,24.3v80.88a57.35,57.35,0,0,0,1.08,11.66,62.07,62.07,0,0,0,17.27,31.62c15.42,15.09,37.09,20.57,58.06,21.77l-5-5V816.71l5-5a256.25,256.25,0,0,1-45.8-5.71l3.67,4.82V757.41a19.19,19.19,0,0,1,0-2.15c-.19,1.65.35-.76.47-1.31q.48-2.12.85-4.26a88.18,88.18,0,0,0,1-23.58A74.88,74.88,0,0,0,684.88,679c-12.33-11.78-28.2-19.19-44.47-23.78-10.37-2.92-29-9.19-32.29,6.29-2.75,13.1-.43,28,4.14,40.35,11.76,31.8,40.31,51.81,70.76,64L679.34,761v47.56l6.33-4.82c-81-24.06-147.53-91.32-159.76-176.53-11.64-81.08,29.43-160.37,97.26-204.27,70.83-45.84,164.35-51.24,240.13-14.16C935,443.83,986.46,515.27,987.52,596.3c.55,41.89-12.33,82.93-35.92,117.48-23.72,34.74-57.63,61.9-95.93,79a241.87,241.87,0,0,1-29.85,10.94c-6.15,1.83-3.53,11.48,2.66,9.64C913.2,788.21,983,717.64,995.43,628.46A212.36,212.36,0,0,0,976,506.33c-18.1-37.22-47-68.71-81.52-91.33C820.64,366.62,723,361.33,643.77,399.82,568.44,436.42,514.81,512.12,514,597c-.88,89.61,57.3,169.47,138.11,205A261.93,261.93,0,0,0,683,813.35a5,5,0,0,0,6.33-4.82V761c0-2.4-1.59-4-3.67-4.82-25.16-10-49.24-26.1-61.3-51.15a73.92,73.92,0,0,1-6.84-39.3c.15-1.6-.25.6.13-1a9.89,9.89,0,0,1,.23-1.31c1.94-4.91,13.66-.21,17.56.82,15,4,29.91,10.34,41.44,21A64.83,64.83,0,0,1,697.64,729a78.48,78.48,0,0,1-1.16,19.43c-.54,2.84-1.35,5.53-1.43,8.42-.47,18,0,36,0,54a5.07,5.07,0,0,0,3.67,4.82,271.59,271.59,0,0,0,48.46,6.07,5.06,5.06,0,0,0,5-5V672.59a5.1,5.1,0,0,0-5-5c-27.94-1.6-57-13.46-64.86-42.58q-.6-2.23-1-4.5-.2-1.09-.36-2.2c.23,1.6,0-.27-.05-.66-.05-.86-.1-1.7-.11-2.56-.14-8.73,0-17.48,0-26.21V512.22c0-2.6-.52-4.89,1.27-7,5.32-6.18,15.86-9.33,23.38-11.47a156,156,0,0,1,40.46-5.62,277.51,277.51,0,0,1,36.26,2.13,168.87,168.87,0,0,1,28.69,5.65c6.76,2,17.51,5.77,20.56,11.12,2.47,4.33,9.32,2.4,9.32-2.52h0c0-3.61-4.31-6.47-7.52-4.32s-2.92,4.42-2.47,7.74l2.3-5.65-.06.08a5.16,5.16,0,0,0-3.67,4.82v82.36c0,9,.32,18,0,27,0,.83-.11,1.66-.19,2.49-.07.66-.14,1,0,.11-.06.44-.13.87-.21,1.31-.19,1-.38,2-.62,3A51.2,51.2,0,0,1,803.05,657a70.53,70.53,0,0,1-16.51,6.68,98.09,98.09,0,0,1-10.72,2.27c-3.59.56-7.92,1.58-11.5,1.26-2.7-.24-5,2.48-5,5V816.76a5.06,5.06,0,0,0,5,5,266.42,266.42,0,0,0,48.46-6.08,5.06,5.06,0,0,0,3.67-4.82V761.19c0-7.36-2-14.2-2.51-21.54-1.11-16.69,3-33.56,13.52-46.81,9.4-11.83,22.77-19.84,36.82-24.93,7.82-2.83,17.13-6.21,25.49-6.63,3.09-.15,3.45,1.13,4,3.36.47,1.75,0-.5.13,1,.1,1,.2,2,.27,3a72.77,72.77,0,0,1,.05,8.23,74.87,74.87,0,0,1-4.55,22c-10.34,28.37-36.9,46.59-63.89,57.37-2.08.83-3.67,2.44-3.67,4.82v47.56C822.16,815,832.16,815,832.16,808.57Z" transform="translate(-498.23 -359.52)"/><path class="cls-1" d="M829.89,743.1c-1.63-2.14-1-7.51-1-10a56.93,56.93,0,0,1,1.29-11.66,48.76,48.76,0,0,1,11.62-22.62C853,686.66,869,680.65,884.73,677l-6.33-4.82c1.13,33.73-27,56.73-55.35,69.16-5.88,2.58-.8,11.2,5,8.63,31.56-13.84,61.56-40.59,60.31-77.79a5.07,5.07,0,0,0-6.33-4.82c-18.49,4.32-37.44,12.09-49.73,27.2A58.75,58.75,0,0,0,820,721.75a73.09,73.09,0,0,0-1,14c.1,3.95-.15,9.21,2.31,12.44C825.11,753.2,833.8,748.22,829.89,743.1Z" transform="translate(-498.23 -359.52)"/><path class="cls-1" d="M682.59,741.88l-.89,1.17,6.84-1.79c-28.42-12.44-56.37-35.39-55.35-69.16l-6.33,4.82c15.73,3.67,31.69,9.69,42.89,21.82,11,11.91,14.5,28.57,12.34,44.33-.86,6.29,8.77,9,9.64,2.66,2.56-18.68-.89-37.49-13.27-52.2-12.24-14.54-30.89-22-48.94-26.25a5.07,5.07,0,0,0-6.33,4.82c-1.12,37.23,28.64,63.93,60.31,77.79a5.23,5.23,0,0,0,6.84-1.79l.89-1.17C695.13,741.82,686.45,736.83,682.59,741.88Z" transform="translate(-498.23 -359.52)"/><path class="cls-1" d="M631.86,501.13c1.57-12.36-7.83-21.4-19.62-22.32-10.66-.83-19.4,4.24-25.2,13-4.91,7.45-7.19,16.58-5.46,25.38a31.85,31.85,0,0,0,5.25,12,47.11,47.11,0,0,0,6.7,7.7,43.84,43.84,0,0,0,5,4.07c3.64,2.43-1-2.32-.12-.42l-1.63-6,.09.68,1.63-6-.31.53,7.12-5.47c2.35-.72-2,.21-2.17.23-1,.1-1.94.21-2.91.33-2.94.36-5.88.76-8.8,1.26a92,92,0,0,0-14.23,3.57,73.31,73.31,0,0,0-24,13.33c-15.16,12.85-21.11,33.53-20.21,52.84.49,10.45,2.23,23.58,9.33,31.8,4.92,5.7,12.19,10.37,18.88,13.76,19.77,10,45.13,4.94,64-4.54a107.72,107.72,0,0,0,16-10c5.81-4.33,12.05-8.82,16.22-14.86,6.5-9.4,9.47-23.39,3.53-33.72-7.64-13.28-28.23-1.3-20.56,12,1.18,2-.11-.17-.06-.91,0,0-.14,3.91.13,1.75a18.35,18.35,0,0,1-1.72,5.76A19.21,19.21,0,0,1,637,600c.34-.43,1.22-1.4-.22,0a88.77,88.77,0,0,1-8.89,7.4c-10,7.29-21.21,13.18-33.55,15a55.28,55.28,0,0,1-14.34.05,46.77,46.77,0,0,1-4.61-.94c.6.15-3.89-1.09-1.29-.22,2.09.7-.5-.27-.79-.42-1.24-.66-2.47-1.34-3.68-2.07-2.05-1.23-4-2.55-6-3.94-3.07-2.19,1.47,1.38-1.19-.91-.5-.43-1-.92-1.5-1.32-1.22-.94-1.25-2.41-.23.07-.09-.22-1.19-2.55-.8-1.62a42.82,42.82,0,0,1-2.65-10.42,63.75,63.75,0,0,1-.09-15.84,56.58,56.58,0,0,1,1.35-6.64c.22-.82.46-1.63.72-2.44.14-.43,1.77-4.51,1-2.86a44.58,44.58,0,0,1,3.42-6.13c.08-.11,2.34-3,.86-1.25.48-.58,1-1.15,1.49-1.71,3.9-4.25,5.19-5.14,10.29-7.93,6.66-3.63,17.32-6.4,25.42-7.37s17.53-1.53,18.8-11.68c1.15-9.17-5.73-12.37-11.28-17.82a20.76,20.76,0,0,1-3.71-4.78c-1.56-2.37.06,1.64-.36-.84-.2-1.17-.23-4.24-.36-.87,0-.66,0-1.4,0-2.06-.13-2.9-.69,1.54-.11.42,1-1.92.91-3.42,1.55-4.63-.19.35,2.11-3.44,1.16-2.18,2.89-3.83.42,0-.11-.94,0,0,1.89-.54,2-.58,2-.76-2.36-.26,0,0,.81.08,1.74,0,2.56,0q-2.62-.41-.66,0,1.88.62-.58-.27a7.33,7.33,0,0,1-2.37-3.41q.49,1.89,0-.21a14.35,14.35,0,0,1-.21,2.44C607.24,507.52,614.1,513,620,513c7.11,0,11.09-5.5,11.91-11.91Z" transform="translate(-498.23 -359.52)"/><path class="cls-1" d="M858.21,487.4c1.33,30.6,3.88,61.3,3.16,91.95-.26,11.06-.66,20.71-3.43,30.95-.49,1.81-1.05,3.59-1.72,5.34q-.65,1.64,0,0-.34.75-.72,1.49c-.39.68-.8,1.38-1.17,2.06q-.4.64-.84,1.26,1.13-1.41.44-.58c-.56.61-1.13,1.19-1.7,1.79-1.5,1.54,1.71-.95-.12.11-.78.45-1.54.9-2.36,1.27-4.91,2.25-6.12,9.35-3.59,13.68,2.95,5,8.75,5.85,13.68,3.59,19.2-8.8,20.59-37.51,21.35-55.39,1.39-32.47-1.57-65.1-3-97.53-.56-12.82-20.56-12.89-20,0Z" transform="translate(-498.23 -359.52)"/><path class="cls-1" d="M896.5,488.8c-.76-1.66.28,1.41.4,2.13-.17-1.08,0,2.11,0,2.88a28.22,28.22,0,0,1-1.89,9.47,19.59,19.59,0,0,1-3.51,5.83c-.87.92-.37.52-2,1.51s-3.35,1.94-5,2.88c-6.19,3.47-13,7.31-16.49,13.74-5.08,9.27.91,18,8,23.81,12.23,10,23.75,20.53,33.18,33.33,2.21,3,4.54,6,6.46,9.23.5.83.92,1.7,1.36,2.56.24.49.46,1,.68,1.49-.88-2,.27.81.33,1a119.34,119.34,0,0,1,4.77,18.94c2.49,15.16,2.56,33.06-4.72,47-5.94,11.4,11.31,21.53,17.27,10.09,7.93-15.23,9.76-32.91,8.33-49.84-1.15-13.55-3.55-28.41-10.23-40.49-7.89-14.25-20.08-27.44-32.21-38.22-3-2.7-6.17-5.31-9.32-7.87-1.61-1.31-3.26-2.58-4.77-4-.27-.26-1.53-1.58-1.51-1.58q-.59-1.76.18,3.43-.69,1.34-.12.38c-.14,0,.86-.82,1.38-1.22a39.7,39.7,0,0,1,4.2-2.67c3-1.79,6.24-3.36,9.19-5.3,14.93-9.84,20.62-32.57,13.3-48.64-2.24-4.92-9.36-6.12-13.68-3.59-5.05,3-5.83,8.75-3.59,13.68Z" transform="translate(-498.23 -359.52)"/><rect id="_Slice_" data-name="&lt;Slice&gt;" class="cls-2" x="13.77" y="503.48" width="528" height="5"/></svg>